<svg xmlns="http://www.w3.org/2000/svg" version="1.1" id="prefix__Icons" x="0" y="0" viewBox="0 0 32 32"
	xml:space="preserve">
	<style type="text/css" id="style2"></style>
	<path
		style="line-height:normal;font-variant-ligatures:normal;font-variant-position:normal;font-variant-caps:normal;font-variant-numeric:normal;font-variant-alternates:normal;font-feature-settings:normal;text-indent:0;text-align:start;text-decoration-line:none;text-decoration-style:solid;text-decoration-color:#000;text-transform:none;text-orientation:mixed;white-space:normal;shape-padding:0;isolation:auto;mix-blend-mode:normal;solid-color:#000;solid-opacity:1"
		d="M14.834 3.102c-1.675.236-3.115 1.193-4.188 2.472-3.005-1.45-6.932.35-7.484 3.752-.37 1.865.34 3.781 1.748 5.096.164 1.397.046 2.912.084 4.531-.07 1.692-.788 3.345-2.053 4.395a1 1 0 00-.12.119c-1.717 2.01-.855 5.296 1.665 6.16 1.086.456 2.292.399 3.319-.068.4-.183.738-.496 1.064-.813C9.731 29.461 10.76 30 12 30h8c2.55 0 4.597-1.97 4.887-4.447.49.261 1.022.447 1.613.447 1.924 0 3.5-1.576 3.5-3.5v-5c0-1.924-1.576-3.5-3.5-3.5-.542 0-1.04.148-1.5.371V14a1 1 0 00-.002-.041c1.433-1.168 2.232-3.103 1.803-4.967-.268-1.439-1.226-2.558-2.385-3.258-.936-.811-2.072-.708-2.785-.69-.364.01-.649-.003-.822-.05-.174-.047-.244-.08-.375-.262a1 1 0 00-.215-.216c-1.469-1.09-3.388-1.821-5.385-1.414zm.379 1.955c1.28-.269 2.664.21 3.814 1.064l-.215-.217c.391.54.955.881 1.477 1.022.522.14.995.128 1.397.117.804-.022 1.2-.024 1.439.195a1 1 0 00.182.133c.791.448 1.39 1.186 1.537 2a1 1 0 00.01.053c.366 1.549-.898 3.56-2.493 3.61l.268.027c-1.034-.251-1.988-.023-2.717.341-.729.365-1.295.822-1.844 1.155a1 1 0 00-.006.004c-1.322.815-3.179.658-4.574-.18l.14.103c-.778-.678-1.806-1.009-2.849-.953-1.043.056-2.204.65-2.65 1.834a1 1 0 00-.063.29c-.135 2.11-.041 4.192-.066 6.202-.052 1.658.075 3.225-.045 4.686-.089.552-.44.95-.978 1.195-.543.247-1.231.268-1.743.045a1 1 0 00-.086-.033c-1.118-.369-1.564-2.097-.806-2.984l-.123.12c1.763-1.463 2.686-3.656 2.775-5.857a1 1 0 00.002-.066c-.04-1.53.127-3.194-.105-4.95a1 1 0 00-.414-.685c-1.077-.76-1.625-2.305-1.358-3.627a1 1 0 00.008-.043c.338-2.149 3.42-3.482 5.17-2.16a1 1 0 001.441-.254c.751-1.156 2.047-1.993 3.403-2.176a1 1 0 00.072-.011zM23 14.865V25c0 1.655-1.345 3-3 3h-8c-.894 0-1.612-.42-2.145-.977.016-.07.073-.116.084-.189a1 1 0 00.008-.064c.147-1.713.002-3.343.051-4.868a1 1 0 00.002-.02c.025-2-.044-3.958.06-5.849.152-.333.37-.48.827-.504.49-.026 1.12.193 1.43.463a1 1 0 00.14.104c1.957 1.175 4.563 1.455 6.654.166.686-.417 1.23-.838 1.696-1.07.468-.234.798-.322 1.35-.188a1 1 0 00.267.027c.213-.006.374-.13.576-.166zM26.5 16c.876 0 1.5.624 1.5 1.5v5c0 .876-.624 1.5-1.5 1.5s-1.5-.624-1.5-1.5v-5c0-.876.624-1.5 1.5-1.5zm-13.516 1.986A1 1 0 0012 19v6a1 1 0 102 0v-6a1 1 0 00-1.016-1.014zm6 0A1 1 0 0018 19v6a1 1 0 102 0v-6a1 1 0 00-1.016-1.014z"
		id="prefix__path12" color="#000" font-style="normal" font-variant="normal" font-weight="400"
		font-stretch="normal" font-size="medium" font-family="sans-serif" text-decoration="none" letter-spacing="normal"
		word-spacing="normal" writing-mode="lr-tb" direction="ltr" dominant-baseline="auto" baseline-shift="baseline"
		text-anchor="start" clip-rule="nonzero" display="inline" overflow="visible" visibility="visible" opacity="1"
		color-interpolation="sRGB" color-interpolation-filters="linearRGB" vector-effect="none" fill="#000"
		fill-opacity="1" fill-rule="nonzero" stroke="none" stroke-width="2" stroke-linecap="round"
		stroke-linejoin="round" stroke-miterlimit="10" stroke-dasharray="none" stroke-dashoffset="0" stroke-opacity="1"
		color-rendering="auto" image-rendering="auto" shape-rendering="auto" text-rendering="auto" />
</svg>