<?xml version="1.0" encoding="UTF-8" standalone="no"?>
<svg
   xmlns:dc="http://purl.org/dc/elements/1.1/"
   xmlns:cc="http://creativecommons.org/ns#"
   xmlns:rdf="http://www.w3.org/1999/02/22-rdf-syntax-ns#"
   xmlns:svg="http://www.w3.org/2000/svg"
   xmlns="http://www.w3.org/2000/svg"
   xml:space="preserve"
   style="enable-background:new 0 0 32 32;"
   viewBox="0 0 32 32"
   y="0px"
   x="0px"
   id="Icons"
   version="1.1"><metadata
   id="metadata21"><rdf:RDF><cc:Work
       rdf:about=""><dc:format>image/svg+xml</dc:format><dc:type
         rdf:resource="http://purl.org/dc/dcmitype/StillImage" /><dc:title></dc:title></cc:Work></rdf:RDF></metadata><defs
   id="defs19" />
<style
   id="style2"
   type="text/css">
	.st0{fill:none;stroke:#000000;stroke-width:2;stroke-miterlimit:10;}
	.st1{fill:none;stroke:#000000;stroke-width:2;stroke-linejoin:round;stroke-miterlimit:10;}
	.st2{fill:none;stroke:#000000;stroke-width:2;stroke-linecap:round;stroke-linejoin:round;stroke-miterlimit:10;}
	.st3{fill:none;stroke:#000000;stroke-width:2;stroke-linecap:round;stroke-miterlimit:10;}
	.st4{fill:none;stroke:#000000;stroke-width:2;stroke-linejoin:round;stroke-miterlimit:10;stroke-dasharray:3;}
</style>





<path
   id="line14"
   d="m 11,11.5 c 0,3.80013 0,7.600261 0,11.400391 0.666667,0 1.333333,0 2,0 0,-3.80013 0,-7.600261 0,-11.400391 -0.666667,0 -1.333333,0 -2,0 z m 8,-2.4003906 c 0,3.8333336 0,7.6666666 0,11.4999996 0.666667,0 1.333333,0 2,0 0,-3.833333 0,-7.666666 0,-11.4999996 -0.666667,0 -1.333333,0 -2,0 z M 15,8.6992188 c 0,4.8671872 0,9.7343752 0,14.6015622 0.666667,0 1.333333,0 2,0 0,-4.867187 0,-9.734375 0,-14.6015622 -0.666667,0 -1.333333,0 -2,0 z M 21.097656,3 c -0.798003,-0.019298 -1.152576,0.8631132 -0.950375,1.534933 0.20556,2.0174279 0.357938,4.0433121 0.596549,6.055488 0.286131,0.908961 1.371536,0.695931 2.106124,0.822968 1.751559,0.153242 3.501388,0.360224 5.254027,0.480101 0.808707,-0.0578 1.141683,-1.078707 0.682647,-1.691453 C 27.337104,6.9698203 24.608,4.2958413 21.295436,3.0195169 l -0.09888,-0.01473 z m 1.195313,2.9863281 c 1.501654,0.936458 2.784245,2.2190495 3.720703,3.7207031 C 24.881511,9.5989583 23.749349,9.4908854 22.617188,9.3828125 22.509115,8.250651 22.401042,7.1184896 22.292969,5.9863281 Z M 3.9941406,20.099609 c -0.8549341,-0.02392 -1.272946,1.055193 -0.7807686,1.698353 1.4496189,3.231906 4.1784374,5.90682 7.491335,7.182053 0.817868,0.186585 1.394775,-0.714279 1.154981,-1.441743 C 11.651806,25.496442 11.497102,23.446157 11.25617,21.409579 10.970039,20.500618 9.8846344,20.713648 9.1500463,20.586611 7.4313307,20.425574 5.7132632,20.254326 3.9941406,20.099609 Z m 1.9921875,2.19336 c 1.1321615,0.108073 2.2643229,0.216146 3.3964844,0.324219 0.1080729,1.132161 0.2161458,2.264323 0.3242187,3.396484 C 8.2048442,25.076706 6.9233267,23.795208 5.9863281,22.292969 Z M 17.408203,7.578125 c -2.117002,-0.040107 -4.117223,1.012193 -5.48799,2.5876 -1.453918,1.551117 -3.3074871,2.88159 -3.9593485,5.00395 -1.1197981,3.087482 0.241424,6.893562 3.2093325,8.390676 2.777161,1.558686 6.553481,0.950302 8.649601,-1.466087 1.160862,-1.220301 2.463106,-2.31724 3.490231,-3.655273 2.076367,-2.920032 1.300044,-7.351655 -1.597784,-9.4367734 C 20.480489,8.0797351 18.946598,7.5747349 17.408203,7.578125 Z m 0.0078,1.9941406 c 2.867913,-0.089034 5.422923,2.6252214 5.070971,5.4908134 -0.08394,1.701362 -1.332929,2.915387 -2.48275,4.018633 -1.348817,1.254022 -2.504864,2.952579 -4.459333,3.254327 -2.674261,0.582744 -5.6303087,-1.366785 -5.9217062,-4.138792 -0.3123295,-1.88272 0.6165282,-3.722762 2.0222672,-4.928677 1.141167,-1.054972 2.102213,-2.33746 3.452552,-3.134984 0.712032,-0.3715973 1.515472,-0.5624887 2.317999,-0.5613204 z"
   style="color:#000000;font-style:normal;font-variant:normal;font-weight:normal;font-stretch:normal;font-size:medium;line-height:normal;font-family:sans-serif;font-variant-ligatures:normal;font-variant-position:normal;font-variant-caps:normal;font-variant-numeric:normal;font-variant-alternates:normal;font-feature-settings:normal;text-indent:0;text-align:start;text-decoration:none;text-decoration-line:none;text-decoration-style:solid;text-decoration-color:#000000;letter-spacing:normal;word-spacing:normal;text-transform:none;writing-mode:lr-tb;direction:ltr;text-orientation:mixed;dominant-baseline:auto;baseline-shift:baseline;text-anchor:start;white-space:normal;shape-padding:0;clip-rule:nonzero;display:inline;overflow:visible;visibility:visible;opacity:1;isolation:auto;mix-blend-mode:normal;color-interpolation:sRGB;color-interpolation-filters:linearRGB;solid-color:#000000;solid-opacity:1;vector-effect:none;fill:#000000;fill-opacity:1;fill-rule:nonzero;stroke:none;stroke-width:2;stroke-linecap:butt;stroke-linejoin:round;stroke-miterlimit:10;stroke-dasharray:none;stroke-dashoffset:0;stroke-opacity:1;color-rendering:auto;image-rendering:auto;shape-rendering:auto;text-rendering:auto;enable-background:accumulate" />
</svg>