<svg xmlns="http://www.w3.org/2000/svg" xml:space="preserve" viewBox="0 0 32 32" y="0" x="0" id="prefix__Icons"
	version="1.1">
	<style id="style2" type="text/css"></style>
	<path id="prefix__path8"
		d="M23 2c-1.91.027-3.769 1.074-4.909 2.58-.406.97.712 1.618 1.332 2.146 1.822 1.454 4.51 1.714 6.495.433.767-.545 1.785-1.07 2.075-2.025.056-.937-.957-1.437-1.569-1.969-1-.7-2.191-1.169-3.424-1.165zm0 2c.714-.002 2.523.583 2.185 1.18-1.112.907-2.759 1.114-3.965.265-1.449-.557.733-1.302 1.427-1.422l.175-.017zM17.98.99c-.983.154-1.443 1.26-1.971 1.987-.95 1.595-1.126 3.509-.969 5.32.222.952 1.735.929 1.928-.03.075-1.412-.076-2.912.707-4.18.27-.893 1.656-1.427 1.256-2.487a1.003 1.003 0 00-.95-.61zm-1.486 6.018c-3.074-.408-6.098 2.19-6.185 5.287.05 1.264-.11 2.61-1.015 3.577-2.911 3.056-3.254 8.237-.59 11.553 2.467 3.361 7.388 4.51 11.102 2.63 3.704-1.716 5.887-6.152 4.846-10.123-.308-1.393-1.133-2.895-1.963-3.846-.795-1.003-1.171-2.285-1.096-3.556-.094-2.753-2.292-5.318-5.099-5.522zm-.201 1.986c2.038.15 3.493 2.241 3.307 4.205-.034 1.855.964 3.498 2.094 4.889 1.79 2.578 1.556 6.337-.628 8.615-2.429 2.768-7.081 3.019-9.797.533-2.317-1.918-3.018-5.372-1.78-8.083.694-1.627 2.325-2.714 2.638-4.532.357-1.371-.127-2.968.85-4.162.73-1.052 2.05-1.62 3.316-1.465z"
		style="line-height:normal;font-variant-ligatures:normal;font-variant-position:normal;font-variant-caps:normal;font-variant-numeric:normal;font-variant-alternates:normal;font-feature-settings:normal;text-indent:0;text-align:start;text-decoration-line:none;text-decoration-style:solid;text-decoration-color:#000;text-transform:none;text-orientation:mixed;white-space:normal;shape-padding:0;isolation:auto;mix-blend-mode:normal;solid-color:#000;solid-opacity:1"
		color="#000" font-style="normal" font-variant="normal" font-weight="400" font-stretch="normal"
		font-size="medium" font-family="sans-serif" text-decoration="none" letter-spacing="normal" word-spacing="normal"
		writing-mode="lr-tb" direction="ltr" dominant-baseline="auto" baseline-shift="baseline" text-anchor="start"
		clip-rule="nonzero" display="inline" overflow="visible" visibility="visible" opacity="1"
		color-interpolation="sRGB" color-interpolation-filters="linearRGB" vector-effect="none" fill="#000"
		fill-opacity="1" fill-rule="nonzero" stroke="none" stroke-width="2" stroke-linecap="round"
		stroke-linejoin="round" stroke-miterlimit="10" stroke-dasharray="none" stroke-dashoffset="0" stroke-opacity="1"
		color-rendering="auto" image-rendering="auto" shape-rendering="auto" text-rendering="auto" />
</svg>