<?xml version="1.0" encoding="UTF-8" standalone="no"?>
<!-- Created with Inkscape (http://www.inkscape.org/) -->

<svg
   xmlns:dc="http://purl.org/dc/elements/1.1/"
   xmlns:cc="http://creativecommons.org/ns#"
   xmlns:rdf="http://www.w3.org/1999/02/22-rdf-syntax-ns#"
   xmlns:svg="http://www.w3.org/2000/svg"
   xmlns="http://www.w3.org/2000/svg"
   xmlns:sodipodi="http://sodipodi.sourceforge.net/DTD/sodipodi-0.dtd"
   xmlns:inkscape="http://www.inkscape.org/namespaces/inkscape"
   width="512"
   height="512"
   viewBox="0 0 512 512.00119"
   version="1.1"
   id="svg8"
   inkscape:version="0.92.4 (5da689c313, 2019-01-14)"
   sodipodi:docname="logo-name-no-rings.svg">
  <defs
     id="defs2" />
  <sodipodi:namedview
     id="base"
     pagecolor="#ffffff"
     bordercolor="#666666"
     borderopacity="1.0"
     inkscape:pageopacity="0.0"
     inkscape:pageshadow="2"
     inkscape:zoom="1.4"
     inkscape:cx="23.113349"
     inkscape:cy="294.13482"
     inkscape:document-units="px"
     inkscape:current-layer="g2052"
     showgrid="false"
     units="px"
     inkscape:pagecheckerboard="true"
     inkscape:snap-smooth-nodes="false"
     inkscape:object-nodes="false"
     inkscape:snap-bbox="true"
     inkscape:object-paths="false"
     inkscape:window-width="3840"
     inkscape:window-height="2081"
     inkscape:window-x="3191"
     inkscape:window-y="-9"
     inkscape:window-maximized="1"
     fit-margin-top="8"
     fit-margin-left="8"
     fit-margin-bottom="8"
     fit-margin-right="8"
     viewbox-width="512"
     viewbox-height="617.08"
     inkscape:snap-others="true"
     inkscape:snap-page="true"
     inkscape:snap-to-guides="true"
     inkscape:snap-grids="true"
     inkscape:bbox-nodes="true"
     inkscape:bbox-paths="true" />
  <metadata
     id="metadata5">
    <rdf:RDF>
      <cc:Work
         rdf:about="">
        <dc:format>image/svg+xml</dc:format>
        <dc:type
           rdf:resource="http://purl.org/dc/dcmitype/StillImage" />
        <dc:title></dc:title>
      </cc:Work>
    </rdf:RDF>
  </metadata>
  <g
     id="g2052"
     inkscape:label="Logo"
     transform="matrix(0.86095887,0,0,0.86771245,40.760427,39.072481)"
     style="display:inline;fill:#000000;fill-opacity:1">
    <g
       id="g2218"
       inkscape:label="Inner"
       transform="translate(0,-5.6692914)"
       style="fill:#000000;fill-opacity:1">
      <g
         transform="translate(1.0507383e-6,3.9072287e-6)"
         style="display:inline;fill:#000000;fill-opacity:1"
         inkscape:label="Name"
         id="g2088">
        <path
           inkscape:label="K"
           style="display:inline;fill:#000000;fill-opacity:1;stroke-width:0.34047547"
           d="m 437.26896,309.79592 c -0.30083,-1.63805 -0.54666,-4.08006 -0.54625,-5.42668 0,-1.99666 -0.1157,-2.53047 -0.63007,-2.89317 -0.55906,-0.39419 -0.65292,-1.12194 -0.8256,-6.4013 -0.2682,-8.19898 -1.16096,-10.83885 -4.46844,-13.21266 -1.25857,-0.9033 -1.55634,-1.36147 -2.06704,-3.18054 -1.18435,-4.21852 -1.56931,-8.03604 -1.88203,-18.66527 -0.17349,-5.89696 -0.41962,-11.22993 -0.54693,-11.85102 -0.27812,-1.35683 -0.99929,-1.85813 -3.77074,-2.62118 l -2.10102,-0.57846 -0.6236,-2.43059 c -1.2317,-4.80081 -0.61668,-16.80667 1.0673,-20.83457 0.44033,-1.05327 0.55181,-1.09916 4.46525,-1.83865 5.15774,-0.97461 10.8149,-0.86888 13.90057,0.25979 1.10333,0.40358 2.03934,0.77612 2.07997,0.82786 0.0406,0.0517 0.38237,4.68424 0.75942,10.29444 l 0.68555,10.20037 1.29301,1.11705 c 0.71116,0.61437 1.58242,1.11704 1.93614,1.11704 0.81521,0 1.46047,-1.44569 5.03814,-11.28776 1.51839,-4.17706 2.95491,-7.82628 3.1923,-8.10937 0.23738,-0.28309 0.61566,-1.15968 0.84061,-1.94797 0.57377,-2.01068 1.39255,-2.19462 10.63726,-2.38977 l 7.69331,-0.1624 0.7368,3.69589 c 1.75343,8.79537 1.70596,15.31834 -0.13892,19.0869 -0.48338,0.98737 -1.01403,1.79523 -1.17925,1.79523 -0.16525,0 -0.86503,-0.38292 -1.55508,-0.85094 -2.41714,-1.63932 -3.6956,-0.82374 -4.73723,3.02208 -0.56743,2.095 -0.63681,2.18546 -1.82675,2.38215 -2.026,0.33487 -3.02545,0.24256 -3.23324,-0.29862 -0.27291,-0.7107 -2.36085,-0.65528 -3.20579,0.0851 -1.34334,1.17711 -2.44429,7.9479 -1.79815,11.05856 0.41874,2.01581 2.41773,4.76698 3.77691,5.19812 0.36796,0.11671 0.66903,0.40384 0.66903,0.63806 0,0.23421 0.23139,1.2046 0.51424,2.15641 0.53222,1.79107 3.04486,4.98716 4.21175,5.35728 0.39827,0.12634 0.74896,0.80133 1.01519,1.95407 0.3088,1.33699 0.76545,2.1145 1.89644,3.22882 0.81929,0.80726 1.65831,1.46775 1.86439,1.46775 0.20612,0 0.37474,0.23506 0.37474,0.52236 0,0.59883 4.39719,9.23337 5.46627,10.73388 0.39078,0.54846 0.98699,0.9972 1.32495,0.9972 0.44714,0 0.66927,0.34752 0.81588,1.2764 0.50178,3.17915 0.63562,7.18393 0.40464,12.10923 l -0.25018,5.33491 h -1.26372 c -1.10711,0 -1.35172,-0.1582 -1.97347,-1.2764 -0.39034,-0.70202 -1.19853,-2.88466 -1.79597,-4.85032 -1.29508,-4.26096 -1.77496,-5.1056 -2.9008,-5.1056 -0.9855,0 -2.04834,1.84983 -3.36617,5.85868 -1.4338,4.36168 -1.93046,5.37364 -2.63723,5.37364 -0.39595,0 -0.79692,-0.36815 -1.01952,-0.93602 -0.77038,-1.96549 -1.6457,-7.25173 -1.97477,-11.92606 l -0.34235,-4.86331 -3.4447,-3.81621 c -3.0903,-3.42357 -4.39938,-5.16488 -6.6305,-8.81983 -0.74931,-1.22746 -2.4632,-1.70739 -3.14885,-0.88174 -0.65789,0.79223 -1.75775,5.67728 -1.99983,8.88222 -0.20074,2.65715 -0.34746,3.2061 -0.99255,3.71321 -0.41636,0.32731 -0.83155,1.0192 -0.92273,1.53755 -0.0911,0.51835 -0.87525,4.97495 -1.74249,9.90357 -0.86722,4.9286 -1.57674,9.02585 -1.57674,9.10499 0,0.0791 -0.67373,0.14387 -1.49721,0.14387 h -1.49722 z"
           id="path2064"
           inkscape:connector-curvature="0" />
        <path
           inkscape:label="I_2"
           style="display:inline;fill:#000000;fill-opacity:1;stroke-width:0.34047547"
           d="m 394.19819,307.43233 c -1.89569,-7.90105 -2.81859,-16.28093 -3.39066,-30.78722 l -0.25025,-6.3464 -1.46905,-1.59276 c -0.80799,-0.87602 -1.87679,-2.46201 -2.37512,-3.52443 -0.87746,-1.87066 -0.90696,-2.13592 -0.93369,-8.39876 -0.0211,-4.95879 -0.15851,-6.90372 -0.58883,-8.33915 -0.78302,-2.61186 -1.75438,-4.08344 -2.69918,-4.08913 -1.90325,-0.0115 -2.1676,-0.28315 -2.75207,-2.8284 -0.30853,-1.3435 -0.7161,-3.43833 -0.90566,-4.65517 -0.53508,-3.43409 -1.06478,-14.3472 -0.75176,-15.48699 l 0.28047,-1.02112 4.57375,-0.097 c 2.51557,-0.0534 9.24821,0.042 14.9614,0.21206 11.95635,0.3558 12.65426,0.49614 13.25712,2.66588 0.52868,1.9028 0.44234,10.64158 -0.14352,14.52617 -0.27805,1.84346 -1.033,4.98341 -1.67768,6.97766 -1.14155,3.53112 -1.18184,3.84834 -1.54091,12.13524 -0.47048,10.85878 -1.51683,20.32829 -2.7737,25.10254 -0.28861,1.09636 -0.47238,1.2764 -1.30291,1.2764 -0.53182,0 -1.1264,0.19207 -1.32134,0.42683 -0.19495,0.23475 -0.83346,3.87249 -1.41892,8.08387 -1.68122,12.0937 -3.61945,19.80499 -5.0307,20.0146 -0.63283,0.094 -0.80264,-0.31972 -1.74679,-4.25467 z"
           id="path2060"
           inkscape:connector-curvature="0" />
        <path
           style="display:inline;fill:#000000;fill-opacity:1;stroke-width:0.34047547"
           d="m 331.18183,305.88162 c -1.52541,-4.81686 -2.55208,-11.30851 -3.61445,-22.85439 -0.49775,-5.4093 -1.03631,-10.18034 -1.19685,-10.60231 -0.16052,-0.42197 -0.61107,-0.99066 -1.00117,-1.26374 -0.6365,-0.44555 -0.86731,-1.69084 -2.2489,-12.13251 l -1.53958,-11.636 -1.19308,-1.5621 c -1.65442,-2.16611 -2.12098,-3.15824 -2.90223,-6.17141 -1.1926,-4.59983 -1.28588,-17.78045 -0.13694,-19.35077 0.40651,-0.55557 1.73411,-0.6412 15.71942,-1.01388 18.04213,-0.48078 31.88767,0.0137 34.14185,1.2194 1.46772,0.78503 2.25244,7.09669 1.90672,15.33588 -0.29872,7.11926 -1.04761,17.67068 -1.26998,17.89288 -0.0932,0.0932 -0.8121,0.0668 -1.59741,-0.0587 -1.3981,-0.22344 -1.45954,-0.29128 -2.95124,-3.25969 -0.83789,-1.66733 -1.75758,-3.12131 -2.04377,-3.23106 -0.30131,-0.11556 -0.9059,0.16384 -1.43656,0.66389 -0.50395,0.47489 -1.48737,1.01753 -2.18538,1.20587 l -1.26909,0.34242 -0.58266,-1.84729 c -0.32049,-1.01601 -0.82219,-2.05933 -1.11495,-2.31848 -0.80057,-0.70872 -12.28164,-0.90547 -13.10325,-0.22455 -1.18204,0.9796 -1.67983,2.50552 -1.67367,5.13039 0.007,3.11288 0.69778,4.95527 2.05253,5.47685 1.19648,0.46063 4.70838,0.24489 9.15506,-0.56241 4.11078,-0.7463 6.40079,-0.41705 8.36742,1.20305 l 1.20486,0.99253 0.22607,6.57109 c 0.21947,6.37895 -0.0334,10.69859 -0.79024,13.50823 -0.33267,1.23468 -0.47939,1.36319 -1.80428,1.58024 -1.73783,0.28471 -2.48373,0.88767 -2.98833,2.41574 -0.40017,1.21179 -0.63037,1.2895 -2.77168,0.93565 -1.10869,-0.18321 -1.33595,-0.40041 -1.97689,-1.8894 -0.3983,-0.92531 -0.8151,-2.44973 -0.92623,-3.38758 -0.11117,-0.93785 -0.45576,-2.01825 -0.76576,-2.40089 l -0.56369,-0.6957 -3.72837,0.77658 c -2.05058,0.42711 -3.97798,0.98786 -4.28307,1.24609 -0.70295,0.59497 -1.04785,2.43529 -2.3413,12.49224 -1.18259,9.1953 -2.04718,13.99447 -3.07988,17.09588 -0.67563,2.02903 -1.78425,3.86678 -2.33265,3.86678 -0.14059,0 -0.75274,-1.56997 -1.3604,-3.48883 z"
           id="path2058"
           inkscape:connector-curvature="0"
           inkscape:label="F" />
        <path
           inkscape:label="I_1"
           style="display:inline;fill:#000000;fill-opacity:1;stroke-width:0.34047547"
           d="m 289.88455,311.83816 c -3.16073,-7.22957 -4.22456,-12.86694 -5.40959,-28.66595 -0.39975,-5.32957 -0.87289,-9.96291 -1.05143,-10.2963 -0.39637,-0.74018 -1.09435,-0.78031 -1.66295,-0.0956 -0.56365,0.67875 -1.4705,0.64548 -2.32018,-0.0851 -0.64976,-0.55869 -0.73792,-1.42867 -1.42051,-14.01883 l -0.72776,-13.42317 -1.66671,-2.22423 c -1.14488,-1.52785 -1.96487,-3.13311 -2.61901,-5.12717 -0.92867,-2.83097 -0.95187,-3.08864 -0.93524,-10.39117 0.009,-4.11851 0.12414,-7.89705 0.25502,-8.39675 0.28743,-1.09737 2.09251,-1.78449 6.61559,-2.51825 3.52995,-0.57266 11.89883,-0.63874 15.60732,-0.12325 3.43357,0.47728 6.7371,1.51475 7.8387,2.46172 0.80462,0.6917 0.94384,1.21362 1.56274,5.85924 0.90475,6.79139 0.7333,19.55507 -0.34752,25.86928 -1.1737,6.85687 -2.62007,10.8503 -4.77671,13.1886 l -1.35853,1.47293 -0.21865,4.23863 c -0.12026,2.33125 -0.067,6.40889 0.11839,9.06141 0.25233,3.61015 0.22393,6.06819 -0.1129,9.77598 -0.24747,2.72427 -0.37038,5.25739 -0.27308,5.62916 0.11539,0.44096 -0.11586,0.94725 -0.66522,1.45634 -0.72161,0.66876 -1.01601,1.68115 -2.05804,7.0773 -1.44343,7.47457 -2.43413,10.89195 -3.1576,10.89195 -0.28131,0 -0.82569,-0.72374 -1.21613,-1.61677 z"
           id="path2066"
           inkscape:connector-curvature="0" />
        <path
           inkscape:label="T"
           style="display:inline;fill:#000000;fill-opacity:1;stroke-width:0.34047547"
           d="m 234.01492,313.55285 c -1.55715,-1.77365 -2.67697,-5.90537 -3.5321,-13.03211 -0.30325,-2.52727 -0.68622,-4.73595 -0.85104,-4.90817 -0.1817,-0.18986 -0.83307,-0.13721 -1.6545,0.13372 -5.22849,1.72452 -6.76397,-6.44416 -5.18068,-27.56102 0.63297,-8.44213 0.65401,-9.62737 0.21453,-12.08326 -0.26801,-1.49764 -0.49263,-4.875 -0.49917,-7.50523 -0.008,-3.25134 -0.14271,-4.913 -0.42057,-5.1907 -0.7412,-0.74075 -2.55677,-0.47371 -3.75153,0.5518 -2.93425,2.51858 -4.33448,2.78532 -5.2332,0.9969 -0.67005,-1.33338 -3.86336,-4.68013 -4.46556,-4.68013 -0.80369,0 -3.21458,3.51721 -5.08162,7.41349 -1.80474,3.76624 -1.89037,3.87865 -2.78421,3.65444 -0.50721,-0.12723 -0.97665,-0.28573 -1.0432,-0.35225 -0.0665,-0.0665 -0.24987,-1.26931 -0.40737,-2.67289 -0.1575,-1.40359 -0.44539,-3.44278 -0.63976,-4.53154 -1.09504,-6.13391 -1.23542,-15.84787 -0.32228,-22.3025 0.60892,-4.30428 -2.7311,-3.85202 27.9691,-3.78725 29.47484,0.0622 28.28368,-0.0259 29.99734,2.21943 1.35949,1.78131 2.50901,4.58429 3.1846,7.76525 0.89149,4.19752 0.80685,14.51778 -0.20098,24.50689 -1.01903,10.10008 -1.54289,10.69406 -3.56158,4.03821 -1.28836,-4.24788 -2.10492,-8.16118 -2.57261,-12.32903 -0.32349,-2.88283 -0.72294,-3.62225 -1.95682,-3.62225 -1.60512,0 -2.34128,1.25557 -2.80048,4.77641 -0.68662,5.26456 -0.73101,5.43479 -1.41736,5.43479 -0.82947,0 -0.94995,-0.24359 -1.7255,-3.48876 -0.71486,-2.99121 -1.34474,-3.99946 -2.49859,-3.99946 -1.78517,0 -1.80562,0.37895 -1.17525,21.7839 0.32628,11.0794 0.48519,13.43865 1.02835,15.26757 0.41609,1.40104 0.64244,3.21458 0.64244,5.14734 v 2.98416 l -1.525,1.40484 c -1.35735,1.25042 -1.70968,1.40484 -3.20521,1.40484 -1.45816,0 -1.79676,0.13842 -2.56204,1.04736 -0.485,0.57604 -0.98088,1.44182 -1.10196,1.92394 -0.12108,0.48213 -0.0827,3.49539 0.0853,6.69616 0.36879,7.02793 0.3289,12.17117 -0.10037,12.93776 -0.29269,0.52268 -0.35762,0.51945 -0.85107,-0.0426 z"
           id="path2070"
           inkscape:connector-curvature="0" />
        <path
           inkscape:label="S"
           style="display:inline;fill:#000000;fill-opacity:1;stroke-width:0.34047547"
           d="m 164.21787,313.25656 c -0.25708,-0.2963 -1.38698,-2.40236 -2.51089,-4.68013 -1.32626,-2.68787 -2.25709,-4.18088 -2.65213,-4.25389 -1.11394,-0.20586 -3.1248,2.27094 -4.19438,5.16626 l -0.98677,2.67114 -1.44254,-0.16106 c -2.7049,-0.30205 -4.38125,-2.16314 -5.43339,-6.03217 -0.90013,-3.31003 -0.80307,-11.85899 0.21249,-18.71493 0.42937,-2.8986 0.90792,-5.60468 1.06346,-6.01352 0.21493,-0.565 0.75453,-0.84123 2.24889,-1.15127 2.87093,-0.59565 5.8027,-0.17652 9.97191,1.42559 7.92051,3.04364 8.24089,3.13532 10.91892,3.12462 2.72536,-0.0109 4.49619,-0.57535 5.5882,-1.78127 0.59913,-0.66164 0.61265,-0.9729 0.23338,-5.37115 l -0.40262,-4.66881 -1.48905,-1.54951 c -5.38779,-5.60658 -5.93053,-6.07969 -8.87717,-7.73848 -1.69074,-0.9518 -3.3766,-1.78841 -3.74635,-1.85913 -0.4719,-0.0903 -0.72322,-0.48251 -0.8432,-1.31604 -0.14854,-1.03186 -0.28241,-1.17361 -1.02174,-1.08193 -3.90656,0.48449 -3.79044,0.44191 -4.5046,1.6516 -0.54482,0.92285 -0.87806,1.15067 -1.56407,1.06929 -0.71957,-0.0854 -0.98577,-0.43021 -1.52492,-1.97547 -1.63707,-4.69204 -2.00679,-7.59685 -2.16607,-17.01867 -0.14164,-8.37786 0.21049,-18.31235 0.74801,-21.10315 0.37912,-1.96837 0.6534,-2.0419 7.62994,-2.04552 3.4764,-0.002 8.31311,-0.22529 10.74824,-0.49664 10.87616,-1.21195 11.72145,-1.24764 13.24314,-0.55912 2.50117,1.1317 3.9695,3.03972 5.40718,7.02634 1.72532,4.78424 2.11619,11.81004 0.9667,17.37629 -0.99685,4.82713 -2.07005,6.22749 -3.60044,4.69802 -0.65907,-0.65867 -2.15002,-3.61311 -3.24384,-6.4279 -1.0148,-2.61147 -1.24704,-2.89317 -2.38512,-2.89317 -1.32907,0 -1.81182,0.77001 -2.07481,3.30942 -0.25359,2.44861 -0.55369,2.80427 -2.37275,2.81209 -1.88475,0.008 -2.38823,-0.57106 -2.60868,-3.00084 -0.1555,-1.71386 -0.35358,-2.25272 -1.02092,-2.77734 -0.45539,-0.35799 -0.94178,-1.07949 -1.08086,-1.60333 -0.31115,-1.17196 -1.70051,-1.45009 -2.99835,-0.60022 l -0.87329,0.57185 0.15512,5.37913 c 0.1648,5.71466 0.55336,7.14156 1.94474,7.14156 0.34877,0 0.88518,0.38292 1.19202,0.85094 0.47607,0.72614 0.81895,0.85192 2.33807,0.85767 5.0074,0.019 9.61634,1.49031 11.54497,3.68558 2.30136,2.61953 3.07651,5.70805 3.85718,15.36859 0.295,3.6505 0.83778,8.11832 1.20619,9.92849 0.87455,4.29709 1.26718,15.96528 0.70776,21.0331 -0.51302,4.64753 -0.89508,6.01627 -1.74104,6.23734 -0.37094,0.0969 -0.82893,0.58235 -1.01774,1.07868 -0.53968,1.41861 -2.97526,2.32696 -6.70481,2.50062 l -3.12326,0.14541 -3.07647,-1.77447 c -1.77996,-1.02667 -3.54371,-1.79635 -4.18517,-1.82638 -1.06748,-0.05 -1.16376,0.0589 -2.58908,2.92637 -1.33758,2.69099 -1.57308,2.97826 -2.44147,2.97826 -0.5286,0 -1.17144,-0.24241 -1.42852,-0.53874 z"
           id="path2068"
           inkscape:connector-curvature="0" />
        <path
           inkscape:label="Y"
           style="display:inline;fill:#000000;fill-opacity:1;stroke-width:0.34047547"
           d="m 108.9495,311.34152 c -0.087,-0.42887 -0.64798,-4.76138 -1.24657,-9.62781 -0.5986,-4.86644 -1.30475,-9.46103 -1.56924,-10.21021 -0.40911,-1.15884 -0.42054,-3.17359 -0.0766,-13.49845 0.22236,-6.67497 0.30755,-12.38824 0.18932,-12.69617 -0.1655,-0.43103 -0.47812,-0.51052 -1.35853,-0.34546 -1.02568,0.1923 -1.1833,0.11504 -1.52908,-0.74958 -0.59259,-1.48173 -0.97492,-3.54753 -1.75332,-9.47332 -1.1084,-8.43805 -2.391997,-13.14209 -3.962782,-14.52257 -0.355001,-0.31199 -1.948165,-0.94066 -3.540366,-1.39705 l -2.894909,-0.82981 -0.26813,-8.08323 c -0.183163,-5.52171 -0.154888,-8.2196 0.08922,-8.51356 0.459872,-0.55378 5.908535,-2.08908 9.194837,-2.59088 3.99888,-0.61061 7.56612,0.0611 10.2758,1.93504 1.05815,0.73176 1.32523,1.19388 1.8116,3.1345 0.7891,3.14854 1.59428,4.84508 3.07894,6.48743 1.37799,1.52435 2.1553,1.73592 2.97333,0.80927 0.87058,-0.98618 2.85836,-5.20112 4.01782,-8.51948 0.59971,-1.71637 1.32658,-3.3161 1.61527,-3.55496 0.39801,-0.32932 2.21631,-0.40775 7.52319,-0.32448 7.07698,0.11103 9.20476,0.45294 9.27005,1.4896 0.0885,1.40537 -0.10609,4.92742 -0.41934,7.58915 -0.78635,6.68162 -2.53281,11.05062 -6.76354,16.91984 -1.30965,1.81686 -2.38118,3.60822 -2.38118,3.98082 0,0.3927 -0.37734,0.86407 -0.89777,1.12147 -0.57579,0.2848 -1.12593,1.03035 -1.534,2.07887 -0.8518,2.18871 -1.65516,6.9393 -1.65516,9.78764 0,6.19603 -1.48229,10.85246 -4.13739,12.99709 -3.4346,2.77426 -3.00736,1.61588 -3.61255,9.79482 l -0.54099,7.31118 -2.10937,3.91429 c -1.95592,3.62953 -2.18866,3.92218 -3.19902,4.0226 -0.92781,0.0922 -1.18677,0.33476 -1.74366,1.63315 -0.94435,2.20177 -1.63457,5.07575 -1.89717,7.89955 -0.23362,2.51213 -0.66408,3.43352 -0.94871,2.03071 z"
           id="path2062"
           inkscape:connector-curvature="0" />
        <path
           inkscape:label="M"
           style="display:inline;fill:#000000;fill-opacity:1;stroke-width:0.34047547"
           d="m 78.157981,314.40974 c -1.130428,-2.3755 -1.722883,-4.90535 -2.37575,-10.14489 l -0.614971,-4.93542 -1.077315,0.0846 c -1.02334,0.0804 -1.103464,-0.003 -1.599219,-1.67176 -0.287046,-0.96601 -0.913474,-4.57343 -1.39206,-8.01648 -0.928857,-6.68238 -1.68655,-9.64808 -3.263299,-12.77295 -0.766882,-1.51984 -1.06268,-2.73024 -1.330882,-5.44597 -0.439151,-4.44669 -0.943417,-7.03229 -1.560577,-8.00176 -0.759945,-1.19377 -2.226264,-1.01451 -3.492671,0.42699 -1.048049,1.19294 -1.468482,2.38082 -2.649827,7.48669 -0.569381,2.46093 -0.702427,2.71297 -1.382435,2.61885 -0.625801,-0.0866 -0.946312,0.2857 -1.904602,2.21243 -0.633702,1.27411 -1.511078,3.19728 -1.949728,4.27371 -0.438647,1.07643 -0.909924,1.95715 -1.047283,1.95715 -0.273163,0 -0.785562,-1.36844 -2.166625,-5.78635 -0.497434,-1.59124 -1.853219,-4.80777 -3.012855,-7.14784 -2.016253,-4.06865 -2.157801,-4.2594 -3.237558,-4.36298 -1.734054,-0.16635 -2.106363,0.36675 -2.106363,3.01608 0,1.27263 -0.16486,4.65938 -0.36636,7.52611 -0.308447,4.38836 -0.275329,6.03249 0.20952,10.4014 0.626517,5.64545 0.503636,7.5859 -0.480381,7.5859 -0.333494,0 -0.922683,0.34463 -1.30931,0.76584 -1.531093,1.66807 -2.675836,4.69745 -6.032991,15.96539 -0.749223,2.51468 -0.971511,2.92159 -1.517978,2.77877 -0.680597,-0.17784 -0.704829,-0.26985 -1.552659,-5.89506 -0.769716,-5.10693 -1.199327,-11.58322 -1.541404,-23.23633 -0.174576,-5.94698 -0.410505,-10.96323 -0.524285,-11.14723 -0.113783,-0.18399 -0.424802,-0.33453 -0.691154,-0.33453 -0.643338,0 -0.648709,-0.0325 -1.88649,-11.40251 -1.068317,-9.81337 -1.080483,-9.87756 -2.089999,-11.0271 -2.277803,-2.59375 -3.147148,-6.21682 -3.111919,-12.96922 0.02214,-4.24595 0.945338,-14.89344 1.324156,-15.27203 0.07029,-0.0702 1.169179,-0.4321 2.441968,-0.8041 2.77784,-0.8119 11.159785,-1.20771 14.071464,-0.66449 1.633805,0.30481 2.141624,0.61105 3.870218,2.33392 1.211793,1.20777 2.31193,2.71496 2.813965,3.85512 0.530739,1.20535 1.550353,2.56906 2.862997,3.8292 3.234016,3.10466 4.389868,2.64624 6.435926,-2.55249 2.908243,-7.38942 3.952341,-8.08931 12.447746,-8.34412 4.060755,-0.12179 6.143485,-0.0303 8.173863,0.359 4.469815,0.85709 4.462087,0.85145 5.081547,3.7113 2.216629,10.23347 2.645879,16.60859 2.825932,41.96987 0.139487,19.64752 0.09145,22.79364 -0.383075,25.08818 -0.38617,1.86732 -0.54331,4.51633 -0.545149,9.19009 -0.0031,7.44807 -0.348407,11.22274 -1.27249,13.90335 -0.528675,1.53359 -0.790109,1.8712 -1.51559,1.95715 -0.738526,0.0875 -0.986626,-0.12706 -1.574048,-1.3615 z"
           id="path2072"
           inkscape:connector-curvature="0" />
      </g>
      <g
         transform="translate(1.0507383e-6,3.9072287e-6)"
         style="display:inline;fill:#000000;fill-opacity:1"
         inkscape:label="Tree"
         id="g2078">
        <path
           style="display:inline;fill:#000000;fill-opacity:1;stroke-width:0.34047547"
           d="m 266.21626,477.42982 c -1.56187,-1.76514 -2.74142,-4.53769 -4.01843,-9.44536 -1.57095,-6.03731 -2.96231,-15.55779 -2.95487,-20.21887 0.004,-2.21903 -0.16771,-3.78873 -0.5013,-4.59504 -0.29951,-0.7239 -2.09609,-2.75563 -4.39373,-4.96877 -3.04039,-2.9286 -4.09428,-4.18894 -4.83851,-5.78635 l -0.95148,-2.04224 -0.23532,-16.33792 c -0.28286,-19.63743 -0.32159,-20.44044 -1.01951,-21.13794 -0.48846,-0.48816 -0.72585,-0.48853 -2.61784,-0.004 -4.52862,1.15951 -7.69031,3.59393 -12.54885,9.66242 -1.38989,1.73604 -3.15135,3.75592 -3.91437,4.48864 -2.25158,2.16225 -6.33461,4.94344 -10.49594,7.14944 -3.75574,1.99101 -6.25966,3.93431 -6.64901,5.1603 -0.10277,0.32362 -0.70961,0.89664 -1.34854,1.2734 -0.78671,0.4639 -1.51018,1.37824 -2.24136,2.83279 -2.54288,5.0585 -6.53887,9.85851 -11.47997,13.78979 -3.86977,3.07892 -4.83392,4.52138 -6.42681,9.61514 -2.76963,8.85676 -4.78346,12.18779 -8.4627,13.99799 -1.71738,0.84495 -2.81877,1.13583 -4.77617,1.26136 -2.92045,0.18731 -2.75887,0.44235 -2.17628,-3.43505 0.53368,-3.55193 1.46131,-7.11847 3.6023,-13.8502 2.3102,-7.26374 2.8283,-8.31597 6.54548,-13.29376 1.61549,-2.16338 3.70355,-5.27953 4.64014,-6.92486 2.66208,-4.67646 4.03423,-6.64474 6.52977,-9.36654 3.72734,-4.06531 7.84656,-7.47946 10.49911,-8.70208 4.15117,-1.91331 12.27428,-9.42631 15.12866,-13.99235 1.3883,-2.2208 1.81201,-5.05883 0.95127,-6.37172 -0.47992,-0.73201 -0.90003,-0.82894 -5.23958,-1.2089 -4.07531,-0.35685 -4.91695,-0.3429 -6.17991,0.10245 -0.80415,0.28356 -3.94421,2.22097 -6.97791,4.30535 -9.00611,6.18792 -13.84611,9.31428 -17.09545,11.0427 -2.94615,1.56715 -4.5978,2.73269 -4.5978,3.24457 0,0.13302 -0.68521,1.44336 -1.52269,2.91186 -0.83748,1.46851 -1.61567,3.09311 -1.72931,3.61021 -0.49171,2.23738 -13.23164,10.13605 -16.34863,10.13605 -0.50787,0 -8.14795,5.84206 -12.41367,9.49219 -1.21756,1.04189 -3.63587,3.32525 -5.374,5.07415 -2.20224,2.21587 -3.72479,3.43812 -5.02251,4.03186 -3.52207,1.6115 -7.40115,1.40193 -10.5088,-0.5677 -1.22073,-0.77371 -1.58233,-1.22698 -1.76805,-2.21635 -0.40837,-2.17553 0.36497,-3.83852 2.84162,-6.11069 1.22603,-1.12479 3.46936,-3.22146 4.98519,-4.65927 2.67995,-2.54201 2.87366,-2.65562 7.01534,-4.11484 2.3426,-0.82534 5.85518,-2.32938 7.80573,-3.34233 l 3.54644,-1.84169 1.65013,-4.76523 c 1.0868,-3.13848 1.91007,-4.97384 2.41159,-5.3763 0.41881,-0.33608 2.63094,-1.92049 4.91584,-3.52092 5.14488,-3.60371 11.78301,-8.90073 16.58705,-13.23604 2.78504,-2.51328 3.62367,-3.46558 3.54398,-4.0243 -0.0977,-0.68527 -0.27815,-0.72809 -2.82901,-0.67162 -1.49854,0.033 -6.58489,0.61114 -11.30301,1.28436 -12.74696,1.81882 -17.78834,2.24939 -25.81994,2.20518 -8.08469,-0.0445 -7.46128,-0.17791 -14.13397,3.0249 -5.2181,2.5046 -8.88087,3.65006 -18.59436,5.81504 -10.489887,2.33802 -13.570756,3.43889 -20.566795,7.34914 -1.651601,0.92312 -3.526078,1.09685 -4.931135,0.45705 -0.625893,-0.28499 -1.013753,-0.87707 -1.378334,-2.10402 -0.755602,-2.54286 -0.652332,-3.05747 0.940103,-4.68483 1.537974,-1.57171 2.469525,-1.95061 17.872791,-7.26949 4.90156,-1.69254 5.30506,-1.90082 7.34976,-3.79407 3.79741,-3.5161 8.32175,-5.73611 17.48729,-8.58065 l 5.39674,-1.67491 8.85502,-0.20711 c 18.43264,-0.43112 32.10951,-2.81278 44.61244,-7.76872 4.41655,-1.75064 10.82014,-4.9251 14.47777,-7.17708 l 2.89491,-1.78237 2.67101,-5.44597 2.67101,-5.44598 0.47335,-7.14784 c 0.51264,-7.74131 0.81667,-10.52213 1.9072,-17.44413 l 0.71052,-4.50995 2.25443,0.007 c 2.68735,0.009 6.40677,0.79504 12.64205,2.6724 7.33428,2.20825 10.37223,2.82926 13.78484,2.81775 4.26032,-0.0143 7.67154,-1.17898 7.67154,-2.61921 0,-0.23094 0.56627,-0.52608 1.25836,-0.65586 3.18438,-0.59702 5.46072,-2.45477 8.21174,-6.70172 1.55998,-2.40824 1.71035,-2.49371 5.00445,-2.84446 l 2.04347,-0.2176 1.78419,1.68849 c 3.39867,3.21642 9.53817,5.75081 19.16133,7.90987 3.41985,0.76727 6.10499,1.62368 8.73231,2.7851 l 3.79389,1.67716 0.45546,2.78201 c 0.67608,4.12995 0.59202,18.05664 -0.11389,18.86431 -1.00375,1.14845 -1.38891,3.15077 -1.19022,6.18778 0.10497,1.60462 0.33908,3.30482 0.52027,3.77821 0.64148,1.67621 6.60778,5.20146 11.6564,6.88732 4.95789,1.65561 9.62224,2.34749 21.27231,3.15547 11.64074,0.8073 17.67577,1.90051 23.2718,4.21546 2.33967,0.96785 6.05772,3.01036 7.20989,3.96072 0.28098,0.23179 2.29502,0.89436 4.47567,1.47242 2.18062,0.57806 5.7056,1.66997 7.83329,2.42652 3.38159,1.20237 4.40431,1.76909 8.1257,4.5027 6.3624,4.67356 11.49122,7.85469 17.36946,10.77319 6.19524,3.07592 17.12925,7.52807 18.48478,7.52668 0.70448,0 1.03059,0.224 1.28125,0.88293 0.18493,0.48612 0.64093,0.96349 1.01329,1.06081 0.5722,0.14952 0.67707,0.46699 0.67707,2.04928 v 1.87236 l -2.58015,-0.24163 c -3.70549,-0.34704 -7.99649,-1.5841 -13.66534,-3.93965 -7.01194,-2.9136 -9.26344,-3.60129 -13.84563,-4.22883 -6.76255,-0.92616 -11.0215,-2.50577 -16.28251,-6.03898 -3.95087,-2.65334 -9.24058,-5.02949 -14.57672,-6.5479 -3.41844,-0.97272 -4.64629,-1.14733 -9.43785,-1.34223 -3.0295,-0.12324 -8.3936,-0.43928 -11.92021,-0.70229 -12.43803,-0.92772 -15.90954,-1.01584 -16.40716,-0.41662 -0.93083,1.12092 -0.33434,2.0189 2.33211,3.51075 1.40488,0.78603 4.08693,2.74219 5.9601,4.34701 4.64521,3.97975 7.43107,5.38485 12.89257,6.5026 0.65353,0.13373 2.5685,1.78437 5.83999,5.03385 2.67717,2.65917 5.74152,5.36061 6.80967,6.00316 1.06812,0.64256 4.57052,2.06706 7.78312,3.16558 6.35041,2.17145 7.09805,2.53493 8.43499,4.10106 0.49005,0.57404 1.48624,1.23188 2.21375,1.4618 4.13771,1.30778 5.07168,1.78805 5.68056,2.92088 0.33632,0.62574 1.75857,2.59279 3.1606,4.37124 2.87416,3.64588 4.14074,6.00416 4.29587,7.99878 l 0.10592,1.36149 -3.0652,-0.0404 c -3.6451,-0.0481 -5.67566,-0.712 -11.14087,-3.64254 -2.54544,-1.36493 -3.78113,-2.23353 -4.08809,-2.87361 -0.30233,-0.6304 -1.50484,-1.49073 -3.84454,-2.75049 -5.14095,-2.76801 -10.55208,-6.4464 -13.89618,-9.44628 -7.23748,-6.49248 -9.75646,-7.93832 -15.38743,-8.8319 -4.35166,-0.69062 -5.37517,-1.19621 -6.81738,-3.36766 -1.2931,-1.947 -3.01145,-3.46047 -5.18989,-4.57118 -2.11941,-1.08058 -7.37674,-2.7366 -10.44602,-3.29042 -3.57236,-0.6446 -6.01321,-1.853 -10.92822,-5.41024 -4.40789,-3.19025 -7.44898,-4.85682 -9.45651,-5.18242 -1.92267,-0.31182 -2.29342,0.19588 -2.29342,3.14049 0,3.81875 2.55689,11.22871 4.48306,12.99205 0.45825,0.41951 4.15556,2.25753 8.21626,4.08448 l 7.38315,3.32177 3.53993,3.47454 c 1.94698,1.91099 3.63665,3.72637 3.75483,4.0342 0.11822,0.3078 0.59928,2.93977 1.06904,5.84878 0.46979,2.90903 1.14598,5.9484 1.50259,6.7542 0.35666,0.80576 1.66131,2.70865 2.89924,4.22859 3.37495,4.14391 3.94835,5.20489 4.48626,8.3015 0.74896,4.31165 0.97773,4.73276 4.72125,8.69161 1.93401,2.0452 4.01194,4.43843 4.61762,5.31823 1.21471,1.76446 1.62146,3.85075 1.04272,5.34825 -0.31286,0.80951 -0.49885,0.91265 -1.3068,0.72442 -4.79281,-1.11646 -15.24814,-7.60394 -17.54213,-10.88477 -0.92062,-1.31666 -1.38537,-2.65484 -3.8314,-11.03194 -1.45041,-4.96738 -2.21634,-6.48527 -4.97505,-9.8596 -2.50631,-3.06554 -2.49858,-3.051 -3.37826,-6.34595 -1.09639,-4.10668 -2.66485,-5.48798 -9.28523,-8.17713 -2.10157,-0.85366 -4.43405,-1.90334 -5.18332,-2.33268 -0.74927,-0.42932 -2.28187,-0.96649 -3.40578,-1.19373 -2.84616,-0.5754 -5.92948,-1.63907 -7.03802,-2.42795 -0.51424,-0.36594 -1.4358,-1.6937 -2.0479,-2.95056 -1.18996,-2.44344 -7.38159,-14.08874 -8.54436,-16.07036 -1.11083,-1.89312 -2.3496,-3.06336 -3.24273,-3.06336 -1.10985,0 -2.96822,1.91848 -3.47741,3.58989 -0.22545,0.74004 -0.48702,3.64305 -0.58126,6.45113 l -0.17135,5.1056 -2.1644,4.42485 c -3.17712,6.49521 -4.35085,10.19786 -4.3815,13.82182 l -0.0248,2.92987 3.32476,4.96904 c 5.74106,8.5803 6.82468,11.46759 7.73391,20.60675 0.4346,4.36842 0.45404,16.97561 0.0318,20.64446 -0.45857,3.98472 -1.07758,7.31517 -1.35962,7.31517 -0.13544,0 -0.55119,-0.34463 -0.9239,-0.76584 z"
           id="path2074"
           inkscape:connector-curvature="0"
           inkscape:label="Tree bottom" />
        <path
           style="display:inline;fill:#000000;fill-opacity:1;stroke-width:0.34047547"
           d="m 111.72722,211.44865 c -0.32781,-0.0856 -0.59601,-0.3052 -0.59601,-0.48798 0,-0.32251 0.69211,-1.71933 1.29232,-2.60818 0.20755,-0.30736 2.55048,-0.58623 7.87111,-0.93688 10.69232,-0.70465 14.85539,-1.40697 18.05846,-3.04649 0.8563,-0.4383 2.97457,-2.12463 4.70726,-3.74739 3.00177,-2.81133 3.1501,-3.01735 3.14532,-4.3687 -0.009,-2.57308 -0.39132,-2.89798 -4.93335,-4.19378 -2.24782,-0.64127 -6.46246,-2.22123 -9.36589,-3.51101 -2.90342,-1.28978 -6.02112,-2.53075 -6.92822,-2.75772 -2.29851,-0.57512 -6.2626,-0.23575 -14.18759,1.21464 -3.65269,0.66849 -8.3355,1.30866 -10.40623,1.42259 l -3.764964,0.20715 -1.533008,-1.16947 c -0.843151,-0.64321 -2.363241,-1.52641 -3.377971,-1.96267 -2.306811,-0.99177 -7.399001,-2.06009 -9.847641,-2.066 -1.795236,-0.004 -1.909557,0.053 -3.612728,1.81033 -0.967356,0.99814 -2.419283,2.95103 -3.226506,4.33976 -0.807224,1.38873 -1.830877,3.00632 -2.274786,3.59465 -0.977144,1.29505 -3.64213,2.50423 -5.51922,2.50423 -0.756498,0 -2.490576,0.4421 -3.853506,0.98244 -6.032726,2.39172 -11.514016,3.5754 -14.051796,3.03447 -2.746257,-0.58537 -2.260376,-0.91776 5.613635,-3.84027 9.54904,-3.54422 14.163802,-6.1345 16.587982,-9.31091 1.188912,-1.55783 1.520086,-3.60635 0.71336,-4.41259 -0.275323,-0.27516 -1.859097,-0.41076 -4.853231,-0.41554 -4.773964,-0.008 -8.066076,-0.51947 -9.537225,-1.48283 -0.844762,-0.55318 -0.879095,-0.66035 -0.430071,-1.34258 0.268389,-0.40778 1.314286,-1.16067 2.324214,-1.6731 5.326981,-2.70284 15.271503,-2.02531 33.298329,2.26864 4.379232,1.04312 8.287353,1.89322 8.684723,1.88911 1.88387,-0.0195 5.38849,-2.34905 6.03467,-4.01132 0.35438,-0.91161 -0.52751,-5.78074 -1.16489,-6.43169 -0.22052,-0.2252 -1.99463,-0.96289 -3.94249,-1.6393 -4.213698,-1.46326 -9.331731,-3.98103 -14.793026,-7.27733 -2.192573,-1.32338 -4.435553,-2.63822 -4.984394,-2.92187 -1.881251,-0.97225 -4.95459,-1.55601 -10.622414,-2.01768 -6.594941,-0.53717 -7.958859,-1.00626 -11.525718,-3.96397 -5.475687,-4.54056 -7.520815,-7.6731 -7.759171,-11.8848 -0.178827,-3.1598 0.226487,-4.94404 1.123109,-4.94404 0.713851,0 2.519828,2.36704 2.537817,3.32625 0.01413,0.75327 2.433209,3.4089 3.969827,4.35801 0.633212,0.39112 1.2485,1.09818 1.367307,1.57126 0.287168,1.14349 3.664713,3.31082 6.56983,4.21578 1.985707,0.61857 2.757224,0.67156 6.836118,0.46955 l 4.597797,-0.22771 2.554332,1.37699 c 1.404883,0.75735 4.699971,2.24704 7.322419,3.31043 6.077126,2.46425 8.75348,3.80959 16.518007,8.30319 11.08018,6.41248 15.63548,8.64247 22.01039,10.77494 2.6357,0.88167 4.02212,1.15369 5.87996,1.15369 2.27465,0 2.50667,-0.0712 3.60612,-1.10621 2.16665,-2.03972 2.07698,-2.29833 -2.48455,-7.1659 -3.91381,-4.17638 -6.19322,-7.4917 -6.19322,-9.0078 0,-1.09573 -0.74246,-1.43349 -5.08807,-2.31468 -4.92247,-0.99815 -9.51735,-2.49622 -15.90129,-5.18428 l -4.72425,-1.98923 -0.10822,-1.29421 -0.10822,-1.29421 3.34371,0.24066 c 1.83904,0.13237 5.64261,0.45724 8.45237,0.72195 6.32222,0.59561 8.50185,0.60971 8.9361,0.0578 0.47301,-0.60114 1.87389,-6.51211 1.91504,-8.08041 0.0191,-0.72765 -0.19853,-1.58479 -0.49054,-1.93207 -0.28867,-0.34331 -0.7996,-1.5432 -1.1354,-2.66643 -0.3358,-1.12323 -1.05456,-3.06351 -1.59724,-4.31172 -0.54268,-1.24821 -0.9867,-2.35868 -0.9867,-2.46771 0,-0.39949 1.08277,-0.18094 2.37974,0.48032 2.44681,1.24753 4.43274,4.97153 8.53232,15.99975 2.94995,7.93564 4.54475,11.48087 6.37878,14.17997 1.4494,2.13306 3.67774,4.33303 4.99772,4.9341 0.87619,0.39897 1.21183,1.01496 2.47485,4.54188 1.24356,3.47259 2.74986,6.15132 4.19037,7.45195 2.11593,1.91047 9.35634,4.38293 16.85391,5.75529 3.80113,0.69576 5.11335,0.74807 18.76469,0.74807 15.91909,0 15.80394,0.0135 15.80394,-1.85195 0,-1.40314 -0.96117,-4.35794 -2.26746,-6.9706 -1.99632,-3.99272 -4.53641,-7.33592 -8.9716,-11.80812 -4.19786,-4.23288 -6.44227,-6.08355 -9.62563,-7.93697 l -1.62205,-0.94439 -3.82719,0.3776 c -2.10496,0.20768 -5.88155,0.75946 -8.39243,1.22617 -7.69542,1.4304 -11.63056,1.06542 -14.83302,-1.37575 -1.45142,-1.10639 -3.77212,-4.25857 -5.12833,-6.96576 -0.51581,-1.02963 -1.30042,-2.30502 -1.74358,-2.83419 -0.66373,-0.79256 -0.80575,-1.3475 -0.80575,-3.14846 0,-2.06814 0.0433,-2.18631 0.80062,-2.18631 1.39144,0 2.90932,0.71052 3.15114,1.47504 0.30127,0.9525 4.47053,5.26 7.18963,7.42802 l 2.11609,1.68721 3.07713,-0.56516 c 3.94883,-0.72526 5.78508,-1.64161 6.59071,-3.28899 0.58732,-1.20095 0.58936,-1.36286 0.0418,-3.31312 -0.46833,-1.66812 -0.84821,-2.27365 -2.0372,-3.24736 -1.17829,-0.96494 -1.60723,-1.64213 -2.21336,-3.49434 -0.74714,-2.28311 -1.77739,-3.82914 -2.55168,-3.82914 -0.22257,0 -1.1744,-1.03388 -2.11518,-2.29752 -4.94493,-6.64191 -8.72972,-8.53459 -18.60787,-9.30534 -3.78277,-0.29515 -5.60026,-0.62218 -8.52519,-1.53397 -2.0446,-0.63737 -4.13914,-1.15885 -4.65455,-1.15885 -0.5154,0 -3.5936,1.3067 -6.84045,2.90379 -7.12712,3.50575 -9.35618,4.24405 -12.81354,4.24405 -3.13484,0 -5.00817,-0.78674 -6.57198,-2.76003 -0.58622,-0.73971 -1.525627,-1.58256 -2.087567,-1.87297 -0.561936,-0.29042 -1.926038,-1.19337 -3.031335,-2.00655 -1.105297,-0.81319 -2.506429,-1.64888 -3.113628,-1.8571 -1.847106,-0.63342 -7.089753,-8.56917 -8.073705,-12.22109 -0.218614,-0.81139 -0.340476,-1.53222 -0.270804,-1.60185 0.186603,-0.186485 2.552946,0.46979 4.616349,1.28031 1.41118,0.55432 2.131212,1.13419 3.311014,2.66651 1.930788,2.5077 2.951588,3.35049 6.799449,5.61372 1.728817,1.01686 3.337517,2.0827 3.574877,2.36852 0.23737,0.28584 0.72369,0.5197 1.08074,0.5197 0.35704,0 1.55998,0.4595 2.6732,1.02112 1.11322,0.56162 2.33743,1.02112 2.72047,1.02112 0.80108,0 7.87182,-2.8987 11.40531,-4.67569 6.31968,-3.17815 9.72128,-6.69296 9.71133,-10.034525 -0.006,-2.02761 -1.54609,-4.62066 -4.48217,-7.54684 l -2.76973,-2.76039 -1.3274,-4.42485 c -0.9344,-3.11482 -1.56856,-4.64161 -2.14197,-5.15698 -0.76138,-0.6843 -6.6845,-3.18493 -8.77347,-3.70399 -0.88713,-0.22043 -0.93659,-0.33684 -0.93659,-2.20412 v -1.97139 l 1.61774,-0.36388 c 5.38306,-1.21083 9.27456,-0.53295 12.93667,2.25352 1.92208,1.4625 2.49573,2.80609 3.02297,7.08028 l 0.48308,3.91626 1.83081,2.47415 c 1.00695,1.36077 3.47326,5.07062 5.48069,8.2441 2.00743,3.17349 4.15112,6.385495 4.76376,7.137805 l 1.11389,1.36784 3.70297,0.43783 c 5.86617,0.6936 11.86624,2.9783 15.11083,5.75389 0.76555,0.65489 2.3341,2.437 3.48568,3.96024 5.29745,7.00725 5.85169,7.56895 8.44597,8.55968 3.28819,1.25574 6.10291,3.21352 7.82225,5.44077 1.12565,1.45817 1.75158,1.9507 2.85035,2.24287 3.59202,0.95514 5.99297,2.66153 11.11443,7.89916 2.7161,2.77772 5.70467,5.55474 6.64126,6.17117 3.03306,1.99623 7.55291,3.24268 8.16564,2.25186 0.27207,-0.43995 -0.73107,-8.52506 -1.37135,-11.05288 -0.28136,-1.11082 -0.91094,-2.90905 -1.39905,-3.99606 l -0.88748,-1.97638 0.72137,-3.09124 c 0.39674,-1.70019 0.89729,-4.46229 1.11232,-6.13801 0.35635,-2.77697 0.33702,-3.10633 -0.21826,-3.71954 -0.33508,-0.37004 -0.75389,-0.67279 -0.9307,-0.67279 -1.08301,0 -2.98876,-1.4812 -4.99621,-3.88319 -3.07104,-3.67463 -4.24913,-4.4361 -8.19985,-5.30004 -8.19799,-1.79274 -13.60238,-3.88494 -15.06403,-5.83174 -1.09309,-1.455915 -4.30372,-7.038395 -6.08997,-10.588945 -2.16702,-4.30739 -3.72525,-9.37619 -3.95049,-12.85055 l -0.19421,-2.99594 1.09258,-0.23982 c 0.80257,-0.17617 1.26206,-0.0865 1.73105,0.33762 1.06273,0.96119 3.2025,5.42352 5.95602,12.42087 1.4365,3.6505 2.94396,6.96254 3.34989,7.36009 1.72952,1.69375 15.45389,3.71191 16.49549,2.42564 0.18949,-0.234 0.44864,-1.72739 0.57589,-3.31864 0.30805,-3.85238 0.70048,-5.00265 1.92208,-5.63398 1.2295,-0.63542 1.15735,-0.80825 1.81863,4.35612 0.56622,4.422 1.03081,5.62537 2.60404,6.74494 1.29323,0.920295 5.42893,1.358105 6.26653,0.663375 0.43308,-0.359205 0.51538,-1.691445 0.51538,-8.342885 0,-6.96391 -0.068,-7.97157 -0.56594,-8.38256 -0.31126,-0.25693 -0.90814,-1.23911 -1.32639,-2.18263 -0.41825,-0.94352 -0.96819,-1.88032 -1.2221,-2.08179 -0.2539,-0.20146 -2.53065,-1.0944 -5.05944,-1.9843 -7.13624,-2.51129 -9.1275,-3.70506 -10.71331,-6.42265 -0.89351,-1.53119 -2.22863,-5.96003 -2.22863,-7.39274 0,-1.07292 -0.64402,-1.69492 -2.89491,-2.79595 -2.2668,-1.10882 -3.9484,-1.48493 -9.53103,-2.13175 -2.58094,-0.29904 -5.0939,-0.69341 -5.58437,-0.87639 -0.49046,-0.18297 -2.15615,-1.58494 -3.70152,-3.11548 l -2.80976,-2.78279 v -1.79447 c 0,-1.60833 0.0758,-1.79448 0.73098,-1.79448 0.40204,0 1.47975,0.69997 2.39492,1.55549 2.66583,2.49208 6.16621,3.77078 12.11252,4.42477 3.7856,0.41635 3.86719,-0.22386 1.24733,-9.78671 -2.14209,-7.81888 -2.69688,-12.53298 -1.42512,-12.10931 0.21486,0.0716 0.80453,1.11634 1.31037,2.3217 0.53063,1.26443 1.21855,2.33113 1.62614,2.52148 0.49605,0.23167 1.28607,1.80281 2.65282,5.27578 3.56983,9.07111 9.26743,19.22511 13.45606,23.98079 l 1.28289,1.45657 3.33621,0.0548 c 6.88554,0.11306 8.99933,0.93347 11.17906,4.33889 0.65204,1.0187 1.55379,1.99211 2.00389,2.16313 0.51631,0.19618 0.90155,0.68948 1.04374,1.3365 0.29976,1.36394 1.4331,2.75939 2.2411,2.75939 0.35809,0 1.14068,-0.43721 1.7391,-0.97158 l 1.08803,-0.97157 -0.41099,-4.23617 c -0.53596,-5.52428 -1.98727,-12.60427 -4.12809,-20.13818 l -1.72349,-6.06529 2.07951,-7.54965 c 3.72099,-13.50908 4.07726,-14.68632 4.70541,-15.54843 0.34101,-0.46801 0.87197,-0.90046 1.17993,-0.96098 0.4977,-0.0978 0.56023,0.41274 0.56278,4.59504 0.002,2.5878 -0.17337,8.47754 -0.38876,13.0883 l -0.39163,8.38322 1.20905,2.8491 c 0.66499,1.56702 2.00536,5.60614 2.9786,8.97583 0.97325,3.3697 1.9856,6.54448 2.24968,7.05507 0.38455,0.74353 0.43413,1.99461 0.24907,6.28394 l -0.23106,5.3556 -1.877,3.07632 c -4.00067,6.55694 -6.13424,12.39971 -6.43363,17.61846 -0.23254,4.053295 0.0114,4.520295 2.20395,4.219945 3.73489,-0.51161 7.24509,-3.26567 9.05582,-7.105075 1.32177,-2.80265 4.19699,-11.79171 4.46346,-13.95452 0.13262,-1.07643 0.3592,-1.95714 0.50351,-1.95714 0.41999,0 2.10131,5.85962 2.46088,8.57649 0.18092,1.3671 0.3451,4.26104 0.36483,6.43096 0.0462,5.083935 -0.48965,6.434985 -2.75068,6.935105 -1.3319,0.29459 -1.65575,0.5782 -3.10928,2.72298 -1.62641,2.39985 -5.28756,6.17783 -6.73305,6.94789 -0.47873,0.25503 -1.59526,2.05438 -2.94423,4.74478 l -2.17304,4.33394 -0.23836,12.24468 c -0.18768,9.64114 -0.35369,12.64272 -0.78076,14.11673 -0.81805,2.8234 -0.71179,9.55928 0.21071,13.35724 1.80752,7.44159 5.7033,11.08956 9.42147,8.82216 0.93901,-0.57263 1.11457,-1.00653 2.16842,-5.35961 0.63069,-2.6051 1.42052,-5.37358 1.75519,-6.15218 0.57541,-1.33868 0.71674,-1.43695 2.59966,-1.8077 7.84323,-1.54433 11.14432,-2.85759 14.00204,-5.57039 1.07405,-1.01958 2.25548,-1.91014 2.62541,-1.97901 1.82257,-0.33935 2.00417,-5.05198 0.33769,-8.76317 -1.06269,-2.36657 -4.28068,-5.65064 -6.49118,-6.62447 -1.23989,-0.54622 -1.46034,-0.82737 -1.99459,-2.54366 -0.87363,-2.80658 -3.15732,-7.04603 -4.66726,-8.66433 -1.82622,-1.95727 -1.74587,-2.43153 0.36952,-2.18115 3.45085,0.40846 5.7677,2.07728 10.23812,7.37449 3.92035,4.64541 6.19348,6.82735 8.15414,7.827 2.32086,1.1833 2.70601,0.95153 4.5061,-2.71165 1.85715,-3.77934 6.4468,-17.27269 7.28173,-21.40797 0.73271,-3.62901 0.55345,-7.47888 -0.43788,-9.40421 -1.09837,-2.133175 -3.7708,-4.424345 -5.96796,-5.116515 -1.25561,-0.39556 -2.00726,-0.84791 -2.23349,-1.34415 -0.20457,-0.44871 -2.99184,-2.32762 -6.96672,-4.6963 -6.0953,-3.63226 -6.64382,-4.03823 -6.85171,-5.07102 -0.1243,-0.61747 -1.21626,-7.07581 -2.42658,-14.35187 -1.21033,-7.27605 -2.50074,-14.49219 -2.86758,-16.03584 -0.54278,-2.28404 -0.59618,-3.0372 -0.28676,-4.04476 0.41486,-1.35091 0.81108,-1.47668 2.68429,-0.85208 3.49804,1.16637 5.07951,4.79915 6.94438,15.9519 1.44769,8.65775 2.39461,11.34135 4.82695,13.67977 2.03134,1.9529 4.29078,2.52404 5.80153,1.4665 0.57314,-0.4012 0.77889,-1.00422 0.95816,-2.80808 0.47567,-4.7866 1.57444,-8.38592 4.72759,-15.48655 l 1.92711,-4.33968 -0.22715,-4.5234 c -0.26087,-5.19504 0.0195,-8.35934 0.76618,-8.64568 0.69148,-0.26519 2.95965,0.80804 3.99847,1.89195 1.40196,1.46282 1.91618,3.14705 1.91618,6.27616 0,3.48329 -0.81171,6.81627 -2.93992,12.07169 -1.57338,3.88533 -1.57527,3.89495 -1.34226,6.8342 0.63752,8.04189 2.42769,11.62291 5.81034,11.62291 2.26336,0 3.4906,-1.06084 4.80797,-4.15608 1.66139,-3.9035 2.03406,-6.18817 1.32088,-8.09754 -0.71893,-1.92476 -0.71213,-2.14312 0.1378,-4.42467 0.8307,-2.2299 0.92313,-5.65101 0.31845,-11.78586 l -0.40682,-4.12746 1.39639,-3.87132 c 0.768,-2.12922 2.27328,-6.16884 3.34504,-8.97692 2.02541,-5.30667 4.24043,-13.32932 4.24043,-15.35853 0,-2.71706 2.67186,-1.07488 3.63427,2.23369 1.40488,4.82971 -0.11297,16.19049 -4.14095,30.99445 -1.09737,4.03308 -1.04404,5.23445 0.23885,5.38229 2.2065,0.25428 6.17433,-2.65042 8.9246,-6.53337 2.21934,-3.13335 2.49156,-3.8477 2.93952,-7.71351 0.22686,-1.95747 0.52292,-3.8597 0.65796,-4.22718 0.24399,-0.66393 0.24774,-0.66393 0.59503,0 0.19225,0.36748 0.75152,2.07547 1.24283,3.79555 0.73112,2.55963 0.8933,3.83895 0.8933,7.04673 0,2.20658 -0.1695,4.29112 -0.38788,4.77012 -0.46789,1.02626 -3.97015,3.5478 -5.52274,3.97624 -2.66676,0.73589 -6.53865,5.64863 -8.25519,10.47436 -0.50872,1.43013 -1.75057,4.55893 -2.7597,6.95289 -3.62553,8.60094 -5.14423,14.55161 -6.27295,24.579085 -0.60196,5.34779 -0.96463,7.20348 -2.09539,10.72176 -1.84374,5.73669 -3.57541,9.68333 -5.79969,13.21802 -1.11152,1.76637 -2.02986,3.70073 -2.28914,4.82177 -0.57647,2.49255 -2.15267,6.57297 -4.91268,12.71788 -4.38405,9.76069 -5.43422,14.51387 -4.69155,21.23459 0.33394,3.02195 0.53034,3.76247 1.1284,4.25445 0.39825,0.3276 0.92937,0.59565 1.18027,0.59565 0.2509,0 1.55879,-1.31932 2.90642,-2.93181 4.13261,-4.94484 10.17535,-11.34138 11.22799,-11.8854 0.54901,-0.28374 3.40377,-0.92796 6.34389,-1.43161 l 5.34569,-0.91572 1.72373,-1.72269 c 3.34808,-3.34608 6.42452,-8.93552 8.75427,-15.90519 0.76855,-2.29918 1.75704,-4.60851 2.19669,-5.13184 1.72877,-2.05787 1.84777,-5.52249 0.28878,-8.40876 -1.53676,-2.84514 -2.21495,-4.52139 -4.05124,-10.01276 -2.88101,-8.61572 -4.14241,-14.510685 -4.48524,-20.961215 -0.18837,-3.54442 -0.17832,-3.60602 1.21757,-7.4621 3.48465,-9.62624 5.28651,-13.04774 6.97414,-13.24298 l 0.97232,-0.11247 -0.18848,3.6864 c -0.14658,2.86776 -0.46788,4.63123 -1.44691,7.94106 -2.10347,7.11141 -2.20183,7.56879 -2.20599,10.26044 -0.005,3.2442 0.85192,6.132375 2.75548,9.286615 0.78193,1.29569 2.3321,4.43509 3.44481,6.97645 1.1127,2.54136 2.2647,4.8887 2.55998,5.21631 1.06001,1.17612 1.97678,0.74916 3.65426,-1.70186 0.86487,-1.26364 2.6578,-3.52287 3.98432,-5.02051 1.96826,-2.22211 2.84733,-3.63083 4.77905,-7.6584 1.30193,-2.714475 3.14479,-6.517005 4.09524,-8.450075 l 1.72813,-3.51465 -0.21188,-3.463 c -0.2352,-3.84451 -1.38349,-8.86508 -2.78592,-12.18062 -0.95181,-2.25027 -1.41732,-3.57504 -2.37856,-6.76937 -0.30986,-1.02963 -1.31838,-3.46171 -2.24114,-5.40463 l -1.67779,-3.53257 v -5.32606 c 0,-10.21225 1.59394,-17.1688 4.49232,-19.60617 1.04956,-0.88261 4.51998,-2.02317 5.08813,-1.67224 0.8712,0.5381 -1.10541,7.28791 -2.3994,8.19373 -1.43908,1.00736 -1.83994,2.39307 -1.60518,5.54877 0.17387,2.337 0.35172,3.02088 0.90509,3.48067 1.5169,1.26029 2.43686,4.76918 3.4197,13.04272 0.22237,1.87205 0.57108,3.61259 0.77489,3.86787 0.51134,0.64047 3.57562,0.25867 4.34369,-0.5412 0.93897,-0.97788 1.72111,-5.34513 1.92164,-10.7298 0.10282,-2.76128 0.32801,-5.0205 0.50044,-5.0205 1.73651,0 2.75766,2.53694 2.74005,6.80746 -0.0157,3.80388 -0.89126,8.0836 -2.67101,13.05616 -1.85979,5.19603 -1.85724,5.37843 0.11661,8.38737 2.1187,3.22976 4.2842,5.21459 7.17403,6.57549 2.05178,0.96623 2.65909,1.08447 6.19157,1.20538 2.15415,0.0737 5.90902,-0.0564 8.34415,-0.28915 3.83517,-0.36661 4.69935,-0.56592 6.45956,-1.48977 5.12927,-2.69211 10.61557,-10.23152 15.00353,-20.61828 1.67405,-3.96263 2.35506,-4.03362 3.45479,-0.3601 0.53471,1.78611 0.52609,2.07349 -0.18803,6.25994 -0.66508,3.89885 -0.87021,4.53073 -1.84069,5.66948 -3.57062,4.18982 -5.82694,10.85233 -4.14708,12.24565 0.54724,0.4539 3.16148,0.35323 9.52586,-0.36686 7.33038,-0.82937 6.62072,-0.82803 6.40721,-0.0121 -0.10527,0.40231 -0.87395,1.49021 -1.70823,2.41754 -1.24311,1.38182 -1.91592,1.80927 -3.72854,2.3688 -3.59374,1.10932 -5.9127,1.36024 -15.95586,1.72645 -10.90631,0.39769 -16.38198,0.9914 -20.16839,2.18682 -2.78562,0.87945 -6.0649,2.66452 -7.72008,4.20236 -2.57228,2.389975 -4.84403,7.487025 -4.57937,10.274675 0.11222,1.18206 0.1314,1.1949 2.84621,1.90616 5.12828,1.34355 7.26915,2.58576 9.38148,5.4434 1.55096,2.09821 1.66839,2.12509 5.69483,1.30388 3.44007,-0.70163 6.83914,-2.36424 9.73896,-4.76369 l 2.34576,-1.94099 5.65781,-0.64839 c 4.13672,-0.47407 6.02407,-0.559 7.02012,-0.3159 0.74927,0.18287 2.32362,0.43899 3.49855,0.56915 3.43772,0.38085 3.2645,0.76531 -1.66825,3.70228 -2.3787,1.41628 -3.05379,1.63182 -8.02425,2.56184 -6.74354,1.26179 -10.75871,2.41099 -13.87326,3.97074 -3.30837,1.65681 -3.31024,1.65898 -3.19312,3.66704 l 0.10105,1.7321 3.0652,2.30245 c 5.74541,4.31573 10.66454,6.10374 13.87714,5.04413 0.68671,-0.2265 1.93721,-1.18387 2.90806,-2.22637 1.59356,-1.71113 1.95256,-1.90981 5.5713,-3.08322 3.45278,-1.11961 4.16043,-1.23896 6.5926,-1.11195 3.86531,0.20185 4.25722,0.47969 4.25722,3.01813 0,2.08402 -0.62438,3.82584 -1.67009,4.65893 -1.51571,1.20753 -3.93085,2.02793 -11.91487,4.04739 -13.44515,3.40076 -15.51413,3.32931 -20.95363,-0.72361 -3.15368,-2.34978 -8.7255,-5.60961 -10.84338,-6.34399 -0.70244,-0.24357 -1.27716,-0.6241 -1.27716,-0.84562 0,-0.22153 -0.63954,-1.67973 -1.42116,-3.24045 -1.98676,-3.96704 -5.26537,-7.21854 -9.19597,-9.11992 -1.58699,-0.76769 -3.06258,-1.39579 -3.27909,-1.39579 -0.76224,0 -4.00223,3.68718 -5.56946,6.33822 -0.87195,1.47492 -2.73589,5.22432 -4.14214,8.33199 -3.17677,7.02048 -4.59024,9.84185 -6.9016,13.776 -3.71901,6.33014 -4.86743,9.43017 -3.80378,10.26794 0.23415,0.18443 1.39665,0.43195 2.58332,0.55005 1.18667,0.1181 2.29781,0.30134 2.46919,0.4072 0.17138,0.10585 0.31159,1.18446 0.31159,2.39689 v 2.20444 l -1.61774,0.69494 c -2.85857,1.22796 -9.31759,3.36212 -14.21912,4.69824 l -4.76808,1.29974 -0.90587,1.86542 c -0.53839,1.10866 -1.70813,2.61136 -2.8835,3.70419 -4.12722,3.83739 -4.93858,4.76539 -4.83038,5.52478 0.0921,0.64613 0.3997,0.77134 2.45124,0.99775 1.29028,0.1424 4.12559,0.72242 6.30069,1.28895 2.17513,0.56652 5.18083,1.12065 6.67937,1.2314 l 2.72462,0.20135 3.40578,-1.78346 c 1.87317,-0.9809 4.37138,-2.13849 5.55155,-2.57241 1.1802,-0.43392 7.00408,-3.68824 12.94195,-7.23181 5.9379,-3.54357 12.99817,-7.63497 15.68952,-9.09201 l 4.89332,-2.64915 6.34574,-0.79339 c 8.9261,-1.11602 16.76793,-1.03937 18.73773,0.18315 0.30308,0.1881 0.39643,0.59301 0.26105,1.1322 -0.19883,0.79171 -0.53501,0.90098 -5.92108,1.9246 -15.29139,2.90612 -21.1028,4.73708 -25.72382,8.10464 -2.74022,1.99691 -4.2452,5.70944 -2.8003,6.90787 0.61525,0.51032 4.30054,0.35942 21.45155,-0.87835 18.0137,-1.30003 20.12688,-1.58691 24.89313,-3.37943 5.26553,-1.98029 9.50231,-4.78273 13.45022,-8.89675 9.95978,-10.3788 13.83753,-23.10389 9.16535,-30.0769 -0.31357,-0.46801 -1.15398,-2.50481 -1.86755,-4.52621 -0.77138,-2.18522 -1.57337,-3.86848 -1.97811,-4.1518 -0.60313,-0.42219 -0.65572,-0.72099 -0.46135,-2.62162 0.18344,-1.79364 1.19468,-7.89418 1.78023,-10.73954 0.0867,-0.42122 0.37369,-0.76584 0.63784,-0.76584 0.66446,0 1.12772,2.5542 1.54329,8.50933 0.35917,5.1464 0.68797,6.83941 1.72332,8.87293 0.89307,1.75412 3.18907,3.72089 4.34373,3.72089 1.20466,0 4.72943,-2.90266 6.39193,-5.26381 0.65442,-0.92944 3.06305,-3.40222 5.35255,-5.49508 3.82094,-3.49282 4.17177,-3.7356 4.2736,-2.9575 0.0866,0.66169 -0.4074,1.38198 -2.25139,3.28265 -2.42791,2.50254 -4.52556,5.45567 -5.6513,7.95603 -0.4167,0.92555 -0.8915,1.45658 -1.36231,1.52372 -0.92992,0.1326 -2.6309,3.51871 -3.64245,7.25089 -0.73966,2.72909 -2.35717,11.62442 -2.35846,12.97034 0,0.39429 -0.54592,1.43049 -1.21226,2.30266 -0.66637,0.87217 -1.43267,2.11462 -1.70288,2.761 -0.59707,1.42814 -0.6406,3.6348 -0.0827,4.19239 0.47037,0.4701 3.88592,0.55834 4.16465,0.1076 0.39003,-0.63066 3.43452,-1.79383 7.76302,-2.96588 5.1916,-1.40578 5.88723,-1.72801 11.16349,-5.17113 4.38347,-2.86051 6.52455,-3.9067 9.02531,-4.41 1.86214,-0.37479 7.99356,-0.18275 8.47258,0.26535 0.33812,0.31631 -4.73771,2.93859 -9.8349,5.08091 -6.43466,2.70446 -15.67092,7.41109 -19.27863,9.82403 -5.54934,3.71159 -8.44697,7.28227 -10.02245,12.35044 -0.58201,1.8723 -0.62349,1.91469 -2.16416,2.21243 -1.38513,0.26767 -1.58386,0.41769 -1.6814,1.26918 -0.19525,1.7043 1.4214,4.32129 4.44563,7.19642 1.54942,1.47301 4.0432,3.86739 5.54174,5.32083 1.49854,1.45344 3.13549,2.79748 3.63771,2.98676 0.50218,0.18927 2.64782,0.66136 4.76808,1.04908 2.12024,0.38773 4.92782,0.95281 6.23905,1.25574 2.85819,0.66033 6.64126,2.2941 6.64126,2.86812 0,0.65233 -5.01821,0.12931 -11.7468,-1.2243 -6.2168,-1.25065 -11.22857,-1.57519 -12.02552,-0.77873 -0.65953,0.65913 -0.45675,3.00967 0.44926,5.20771 1.02142,2.47803 1.02749,2.62257 0.14386,3.42177 -0.57575,0.52071 -0.80411,0.55883 -1.27717,0.21319 -0.31684,-0.2315 -0.97674,-0.67544 -1.46646,-0.98653 -0.8181,-0.51971 -0.9059,-0.80488 -1.0815,-3.51366 -0.56996,-8.79231 -5.42462,-15.40491 -15.35664,-20.91749 l -2.34314,-1.3005 -5.83073,-0.15482 c -9.37017,-0.2488 -12.08093,0.5527 -16.38512,4.84463 -2.75874,2.75091 -2.89024,2.83283 -7.53603,4.69578 -6.79132,2.7233 -9.31237,3.90561 -9.52857,4.46865 -0.30707,0.79967 0.75635,2.06762 3.54599,4.22813 1.43911,1.11455 2.90853,2.35107 3.26539,2.74782 0.78758,0.87566 1.89337,0.91168 6.53299,0.2128 3.97236,-0.59837 6.95824,-0.64887 8.76231,-0.1482 1.28688,0.35714 2.61738,1.37555 2.61738,2.00344 0,0.40507 -4.42101,1.81827 -8.21654,2.62645 -3.91453,0.83352 -11.22537,0.82301 -15.82603,-0.0227 l -3.43762,-0.63195 -0.76367,-2.36968 c -0.64703,-2.00771 -1.13134,-2.75653 -3.17068,-4.90213 -4.09769,-4.3112 -9.17094,-6.27836 -17.93815,-6.95555 -7.64389,-0.59042 -11.77755,-0.0502 -19.479,2.5455 -7.42493,2.50254 -8.08204,2.6275 -15.12069,2.87542 -6.28904,0.22152 -6.53323,0.25729 -8.68473,1.27194 -1.21756,0.57421 -2.70531,1.45949 -3.30607,1.9673 -1.01707,0.85968 -1.09919,1.0911 -1.19203,3.35912 l -0.0997,2.43583 -1.5326,0.51512 c -1.19643,0.40213 -3.13873,0.50662 -8.85501,0.47636 -7.15323,-0.0379 -10.73214,-0.32856 -14.09269,-1.14464 -1.93154,-0.46906 -7.35539,-0.11136 -18.45385,1.217 -4.81742,0.5766 -7.31752,1.03206 -8.47581,1.54412 -2.51328,1.11108 -5.05894,1.21693 -7.50996,0.31226 -6.94129,-2.56201 -7.46594,-2.69341 -12.78603,-3.20241 -6.59375,-0.63085 -8.09698,-0.96548 -10.87943,-2.42185 -4.12003,-2.15646 -15.82681,-7.55977 -17.88501,-8.2549 -6.97841,-2.35683 -12.74573,-2.56068 -20.26436,-0.71625 -2.48976,0.61078 -4.75656,1.72731 -16.19682,7.97785 l -13.30191,7.26768 -11.03078,1.20696 c -9.98026,1.09201 -15.46237,1.40349 -17.11325,0.97233 z"
           id="path2018"
           inkscape:connector-curvature="0"
           inkscape:label="Tree top" />
      </g>
    </g>
  </g>
</svg>
