<?xml version="1.0" encoding="UTF-8" standalone="no"?>
<svg
   xmlns:dc="http://purl.org/dc/elements/1.1/"
   xmlns:cc="http://creativecommons.org/ns#"
   xmlns:rdf="http://www.w3.org/1999/02/22-rdf-syntax-ns#"
   xmlns:svg="http://www.w3.org/2000/svg"
   xmlns="http://www.w3.org/2000/svg"
   id="svg13"
   version="1.1"
   viewBox="0 0 512 512">
  <metadata
     id="metadata19">
    <rdf:RDF>
      <cc:Work
         rdf:about="">
        <dc:format>image/svg+xml</dc:format>
        <dc:type
           rdf:resource="http://purl.org/dc/dcmitype/StillImage" />
        <dc:title>Turtle</dc:title>
      </cc:Work>
    </rdf:RDF>
  </metadata>
  <defs
     id="defs17" />
  <title
     id="title2">Turtle</title>
  <g
     id="Turtle">
    <path
       id="path4"
       d="m 421.62,246.5 a 59.37,59.37 0 0 0 -59.3,-59.3 H 351.51 A 122.51,122.51 0 0 0 303,150.36 v -38.69 a 47,47 0 1 0 -93.9,0 v 38.69 A 122.51,122.51 0 0 0 160.54,187.2 H 149.3 A 59.37,59.37 0 0 0 90,246.5 v 6 h 44.56 c -0.28,3.41 -0.44,6.85 -0.44,10.32 v 46.36 a 121.74,121.74 0 0 0 1.95,21.74 l -9.54,9.54 a 59.37,59.37 0 0 0 0,83.86 l 4.24,4.25 36.23,-36.23 a 121.67,121.67 0 0 0 177.82,0.2 l 36,36 4.24,-4.25 a 59.29,59.29 0 0 0 0,-83.86 l -9.22,-9.22 a 122.47,122.47 0 0 0 2,-22.06 v -46.33 c 0,-3.47 -0.16,-6.91 -0.44,-10.32 h 44.18 z M 221.05,111.67 a 34.95,34.95 0 0 1 69.9,0 v 34.39 a 122.08,122.08 0 0 0 -69.9,0 z M 102.38,240.5 a 47.38,47.38 0 0 1 46.92,-41.3 h 2.79 a 121.06,121.06 0 0 0 -15.91,41.3 z M 131,411.33 A 47.37,47.37 0 0 1 135,349 l 4.36,-4.36 a 121.58,121.58 0 0 0 19.83,38.56 z m 213,-36.52 a 109.75,109.75 0 0 1 -168.59,9.05 114.08,114.08 0 0 1 -7.71,-9.27 109.69,109.69 0 0 1 -16,-30.52 108.25,108.25 0 0 1 -4.91,-21.88 109.64,109.64 0 0 1 -0.78,-13 v -46.37 c 0,-3.48 0.17,-6.92 0.49,-10.32 a 110.17,110.17 0 0 1 62.44,-89 107.86,107.86 0 0 1 12,-4.85 110,110 0 0 1 69.9,0 107.86,107.86 0 0 1 12,4.85 109.57,109.57 0 0 1 62.44,89 c 0.32,3.4 0.49,6.84 0.49,10.32 v 46.36 a 109.43,109.43 0 0 1 -21.81,65.63 z M 376.61,349 a 47.31,47.31 0 0 1 4,62.38 l -28,-28 a 121.65,121.65 0 0 0 19.92,-38.49 z m -0.79,-108.45 a 121.06,121.06 0 0 0 -15.91,-41.3 h 2.41 a 47.38,47.38 0 0 1 46.92,41.3 z" />
    <path
       id="path6"
       d="M 335,216.07 A 93.29,93.29 0 0 0 320.87,198 a 91.41,91.41 0 0 0 -129.74,0 93,93 0 0 0 -14.51,18.77 90.64,90.64 0 0 0 -11.9,35.77 93.11,93.11 0 0 0 -0.6,10.32 v 46.36 a 90.85,90.85 0 0 0 8.71,38.94 92.25,92.25 0 0 0 15.45,22.93 c 0.93,1 1.88,2 2.85,3 a 91.4,91.4 0 0 0 129.74,0 c 0.91,-0.91 1.79,-1.85 2.66,-2.79 a 92,92 0 0 0 15.94,-23.81 90.8,90.8 0 0 0 8.41,-38.26 V 262.82 A 93.11,93.11 0 0 0 347.28,252.5 90.61,90.61 0 0 0 335,216.07 Z M 256,183 a 78.87,78.87 0 0 1 41.69,11.86 L 276.77,233 H 232.9 L 212.58,195.9 A 78.94,78.94 0 0 1 256,183 Z m 25.83,65.82 21.49,37.18 -21.26,36.82 -2.4,4.16 h -47.32 l -3.6,-6.23 L 208.68,286 229,250.84 l 3.36,-5.82 h 47.32 z m -82.21,116.74 a 79.3,79.3 0 0 1 -23.5,-56.38 v -46.36 a 79.3,79.3 0 0 1 23.5,-56.38 c 1.08,-1.08 2.2,-2.12 3.33,-3.14 l 19.29,35.22 -25.68,44.48 a 6,6 0 0 0 0,6 l 25.44,44.07 -19.36,35.36 c -1.03,-0.93 -2.04,-1.89 -3.02,-2.87 z M 256,389.05 a 78.9,78.9 0 0 1 -43.76,-13.17 l 20.2,-36.9 h 44.79 L 298,377 a 79,79 0 0 1 -42,12.05 z m 79.88,-79.87 a 79.3,79.3 0 0 1 -23.5,56.38 c -1.48,1.48 -3,2.88 -4.6,4.23 l -19,-34.66 26.66,-46.13 a 6,6 0 0 0 0,-6 l -26.87,-46.55 18.9,-34.51 c 1.68,1.43 3.33,2.92 4.91,4.5 A 79.45,79.45 0 0 1 335,251 v 1.49 h 0.19 a 80.45,80.45 0 0 1 0.69,10.32 z" />
    <path
       id="rect8"
       d="m 269.66,104.31 h 12 v 13.96 h -12 z" />
    <path
       id="rect10"
       d="m 229.66,104.31 h 12 v 13.96 h -12 z" />
  </g>
</svg>
